<?xml version="1.0" standalone="no"?>
<!DOCTYPE svg PUBLIC "-//W3C//DTD SVG 20010904//EN"
 "http://www.w3.org/TR/2001/REC-SVG-20010904/DTD/svg10.dtd">
<svg version="1.0" xmlns="http://www.w3.org/2000/svg"
 width="100.000000pt" height="100.000000pt" viewBox="0 0 100.000000 100.000000"
 preserveAspectRatio="xMidYMid meet">

<g transform="translate(0.000000,100.000000) scale(0.100000,-0.100000)"
fill="#000000" stroke="none">
<path d="M0 843 c1 -145 2 -155 14 -120 42 116 151 197 267 197 58 0 132 -27
177 -66 l42 -36 41 36 c149 127 376 61 445 -131 12 -35 13 -25 14 120 l0 157
-500 0 -500 0 0 -157z"/>
<path d="M331 758 c-4 -13 -18 -77 -31 -143 l-24 -120 -23 53 c-12 28 -27 52
-33 52 -5 0 -19 -18 -30 -40 l-21 -41 -76 3 c-73 3 -78 4 -84 28 -4 14 -7
-104 -8 -262 l-1 -288 500 0 500 0 -1 288 c-1 251 -2 281 -13 241 -35 -126
-132 -237 -330 -379 -65 -47 -127 -91 -137 -99 -16 -11 -22 -11 -38 0 -10 8
-72 52 -137 99 -140 101 -248 205 -287 278 l-28 52 79 0 c71 0 81 2 95 23 l15
22 10 -25 c55 -142 64 -138 98 44 12 68 20 93 26 80 4 -11 19 -84 33 -164 36
-200 42 -203 100 -50 21 55 41 100 44 100 3 0 15 -23 26 -52 11 -28 25 -53 32
-55 7 -3 24 14 39 36 24 38 30 41 70 41 25 0 53 -6 64 -12 26 -17 55 0 55 32
0 32 -29 49 -55 32 -11 -6 -44 -12 -74 -12 -47 0 -57 -4 -73 -26 l-19 -26 -25
64 c-14 35 -31 63 -39 63 -12 0 -58 -99 -85 -180 -4 -12 -20 49 -40 159 -19
98 -36 185 -39 192 -8 21 -26 17 -35 -8z"/>
</g>
</svg>
