<?xml version="1.0" standalone="no"?>
<!DOCTYPE svg PUBLIC "-//W3C//DTD SVG 20010904//EN"
 "http://www.w3.org/TR/2001/REC-SVG-20010904/DTD/svg10.dtd">
<svg version="1.0" xmlns="http://www.w3.org/2000/svg"
 width="64.000000pt" height="64.000000pt" viewBox="0 0 64.000000 64.000000"
 preserveAspectRatio="xMidYMid meet">

<g transform="translate(0.000000,64.000000) scale(0.100000,-0.100000)"
fill="" stroke="none">
<path d="M125 551 c-56 -25 -89 -87 -90 -163 0 -49 -3 -58 -17 -58 -10 0 -18
-4 -18 -10 0 -5 11 -10 24 -10 18 0 31 -11 50 -44 31 -54 89 -104 178 -158
l68 -40 67 40 c90 54 148 104 179 158 19 33 32 44 50 44 13 0 24 5 24 10 0 6
-8 10 -18 10 -15 0 -17 9 -17 58 0 156 -141 231 -255 135 l-31 -26 -22 21
c-25 24 -88 52 -114 52 -10 0 -36 -9 -58 -19z m126 -19 c15 -9 36 -28 48 -42
l21 -25 21 25 c35 41 71 60 116 60 79 0 139 -80 131 -175 l-3 -40 -96 -3 -97
-3 -6 46 c-4 25 -11 45 -15 45 -4 0 -16 -27 -26 -60 -20 -64 -31 -69 -41 -15
-3 19 -10 35 -14 35 -4 0 -13 -27 -20 -61 -16 -74 -24 -64 -40 54 -7 48 -16
87 -20 87 -4 0 -14 -29 -21 -65 l-13 -66 -60 3 -61 3 -3 40 c-8 95 52 175 131
175 23 0 54 -8 68 -18z m-21 -254 c7 -49 15 -88 20 -88 4 0 13 27 20 60 15 72
27 83 36 35 3 -19 9 -35 13 -35 4 0 17 28 28 63 21 61 21 62 28 30 l8 -33 93
0 c52 0 94 -3 94 -7 0 -3 -14 -25 -32 -47 -37 -49 -99 -100 -168 -139 l-50
-29 -50 29 c-69 39 -131 90 -168 139 -18 22 -32 44 -32 47 0 4 27 7 59 7 l59
0 7 42 c10 56 20 34 35 -74z"/>
</g>
</svg>
